<svg width="800" height="100" xmlns="http://www.w3.org/2000/svg">
 <g id="Layer_1">
  <title>Layer 1</title>
  <path d="m184.94626,90.86024c0,-0.53764 0,-1.07527 0,-2.15054c0,-0.53763 0,-1.07526 0,-2.15054c0,-1.07527 0.29057,-1.64166 0.53763,-2.68817c0.27621,-1.17004 0.53764,-1.61291 0.53764,-2.15054c0,-0.53764 0,-1.07527 0,-2.15054c0,-0.53763 0,-1.07526 0,-2.15054c0,-0.53764 0,-1.07527 0,-2.15054c0,-0.53764 0,-1.07527 0,-2.15054c0,-0.53764 0,-1.07527 0,-1.61291c0,-0.53764 0,-1.07527 0,-1.6129c0,-0.53764 0,-1.07527 0,-1.61291c0,-1.07526 0,-1.6129 0,-2.15054c0,-0.53764 0,-1.07527 0,-1.61291c0,-0.53763 0,-1.07526 0,-2.15054c0,-0.53764 0,-1.6129 0,-2.68817c0,-1.07527 0,-1.6129 0,-2.15054c0,-0.53763 -0.53764,-1.07527 -0.53764,-1.6129c0,-1.07527 -0.26143,-1.51815 -0.53763,-2.68818c-0.12352,-0.52325 -0.24667,-0.91045 -0.53764,-1.6129c-0.20575,-0.49671 0,-1.07527 0,-1.6129c0,-0.53764 -0.53763,-1.07527 -0.53763,-1.6129c0,-0.53764 0,-1.07527 0,-1.6129c0,-0.53764 0,-1.07527 0,-1.6129c0,-0.53764 0,-1.07527 0,-1.6129c0,-1.07527 0,-2.15054 0,-2.68817c0,-0.53764 0,-1.6129 0,-2.15054c0,-0.53764 0,-1.07527 0,-1.6129c0,-0.53763 -0.20575,-1.11619 0,-1.6129c0.29095,-0.70245 0.53763,-1.6129 0.53763,-2.15054c0,-1.07527 0.53764,-2.15054 0.53764,-2.68818c0,-0.53763 0.53763,-1.07527 0.53763,-1.6129c0,-0.53763 0,-1.07527 0,-1.6129c0,-0.53763 0,-1.07527 0,-1.6129c0,-0.53763 0,-1.6129 0,-2.15054c0,-0.53763 0.53764,-0.53763 0.53764,-1.07527c0,-0.53764 0,-1.07527 0,-1.6129c0,-0.53763 0.53763,-0.53763 0.53763,-1.6129c0,-0.53763 0,-1.07527 0,-1.6129c0,-0.53763 0,-1.07527 0,-1.6129c0,-0.53763 0,-1.07527 0,-1.6129c0,-0.53763 -0.15747,-0.69511 -0.53763,-1.07527c-0.38017,-0.38017 0,-1.07527 0.53763,-1.07527c0.53763,0 1.07527,0 1.6129,0c0.53764,0 0.53764,-0.53763 1.07527,-0.53763c0.53763,0 1.07527,0 1.6129,0c0.53764,0 1.07527,0 1.61292,0c0.53763,0 1.07526,-0.53763 2.15053,-0.53763c0.53764,0 1.07527,0 2.15054,0c0.53763,0 1.69475,0.41149 2.68817,0c0.70245,-0.29097 1.6129,-0.53763 2.68817,-0.53763c0.53763,0 1.6129,0 2.68817,0c0.53763,0 1.6129,0 2.68817,0c0.53763,0 1.6129,0 2.68817,0c0.53763,0 1.6129,0 2.15054,0c0.53763,0 1.07527,0 2.15053,0c0.53764,0 1.07527,0 1.61292,0c0.53763,0 1.07526,0 1.6129,0c0.53763,0 1.07527,0 2.15053,0c0.53764,0 1.07527,0 1.61292,0c0.53763,0 1.6129,-0.53763 2.15053,-0.53763c1.07527,0 1.61292,0 2.15054,0c0.53763,0 1.07527,0 1.6129,0c0.53764,0 0.53764,0.53763 0.53764,1.07527c0,1.07527 0,2.15054 0,2.68817c0,1.07527 -0.24667,1.98571 -0.53764,2.68817c-0.41148,0.99342 0,2.15054 0,2.68817c0,1.07527 0,2.15054 0,2.68817c0,1.07527 -0.26143,2.05578 -0.53763,3.22581c-0.12352,0.52325 0,1.6129 0,2.68817c0,0.53764 0,1.6129 0,2.68817c0,0.53764 0,1.6129 0,2.68818c0,0.53763 0,1.6129 0,2.15054c0,0.53764 0,1.6129 0,2.15054c0,1.07527 0,2.15054 0,2.68817c0,1.07527 0,2.15054 0,2.68817c0,1.07527 0,2.15054 0,2.68817c0,0.53764 0,1.6129 0,2.15054c0,0.53764 0,1.6129 0,2.15054c0,0.53763 0,1.6129 0,2.68817c0,0.53763 0,1.6129 0,2.15054c0,0.53764 0,1.07527 0,1.6129c0,0.53764 -0.53764,1.07527 -0.53764,2.15054c0,0.53763 0,1.6129 0,2.15054c0,0.53764 -0.53763,1.6129 -0.53763,2.15054c0,0.53764 0,1.07527 0,1.6129c0,0.53764 -0.26143,1.51815 -0.53763,2.68818c-0.12352,0.52325 0,1.6129 0,2.15054c0,0.53764 0,1.07526 0,2.15054c0,1.07527 0,1.61291 0,2.15054c0,0.53764 0,1.07527 0,1.61291c0,0.53764 0,1.07526 0,1.6129c0,0.53764 0,1.61291 0,2.68817c0,0.53764 0,1.07527 0,2.15054c0,1.07526 -0.53764,2.15054 -0.53764,2.68817c0,0.53764 -0.53763,0.53764 -0.53763,1.07526l0,0.53764" id="svg_3" stroke="#fff" fill="none"/>
  <path d="m191.9355,69.35486c0,0.53764 -0.76033,1.39021 0,2.15054c0.38016,0.38016 0.53763,0.53764 0.53763,1.07527c0,0.53763 0,1.07526 0,1.6129c0,0.53764 0,1.07527 0,1.61291c0,0.53763 0,1.07526 0,1.6129c0,0.53764 0.15747,0.6951 0.53764,1.07527c0.38016,0.38016 0.53763,0.53763 1.07527,0.53763c0.53763,0 1.07526,0 1.6129,0c0.53763,0 1.07527,0 1.6129,0c0.53763,0 1.07527,0 1.6129,0c0.53764,0 0.53764,-1.07526 0.53764,-1.6129c0,-0.53764 0,-1.07527 0,-1.6129c0,-0.53764 -0.20575,-1.1162 0,-1.61291c0.29095,-0.70245 0.53763,-1.07527 0.53763,-1.6129c0,-0.53764 0.53764,-1.07527 0.53764,-1.61291c0,-0.53764 0,-1.07526 0,-1.6129c0,-0.53764 -0.45847,-0.6307 -1.07527,-1.07527c-0.97527,-0.70293 -1.61292,-0.53764 -2.15054,-0.53764c-0.53763,0 -1.07527,0 -2.15054,0c-0.53763,0 -0.91045,-0.24667 -1.6129,-0.53764c-0.99342,-0.41148 -1.6129,0 -2.15053,0l-0.53764,0" id="svg_4" stroke="#fff" fill="none"/>
  <path d="m206.98926,67.20432c0,0.53764 0,1.61291 0,2.15054c0,1.07526 0,2.15054 0,2.68817c0,1.07526 0,2.15054 0,2.68817c0,0.53764 0.24667,0.91045 0.53764,1.6129c0.4115,0.99342 -0.38017,1.77038 0,2.15054c0.38016,0.38016 0.57855,0.74338 1.07527,0.53763c0.70244,-0.29096 0.91045,-1.32194 1.6129,-1.6129c0.99342,-0.41148 1.07527,-0.53764 2.15054,-0.53764c1.07526,0 1.6129,0 2.15053,0c1.07527,0 1.07527,0.53764 1.6129,0.53764c0.53764,0 1.2401,-0.24667 0.53764,-0.53764c-0.49672,-0.20575 -1.03098,-0.74564 -1.6129,-2.15054c-0.41148,-0.99342 -0.53764,-1.61291 -0.53764,-2.68817c0,-1.07527 0,-1.61291 0,-2.68817c0,-1.07527 0,-2.15054 0,-2.68817c0,-0.53764 0.38017,-1.23274 0,-1.61291c-0.38016,-0.38016 -1.07527,0 -1.6129,0c-1.07527,0 -1.6129,0 -2.15054,0c-1.07527,0 -1.6129,0 -2.68817,0c-1.07527,0 -1.6129,0 -2.15053,0l-0.53764,0l-0.53763,0" id="svg_5" stroke="#fff" fill="none"/>
  <path d="m191.9355,52.15055c0,0.53764 0,1.6129 0,2.68817c0,0.53764 0,1.07527 0,1.6129c0,0.53764 0,1.07527 0,1.6129c0,0.53764 0.53763,1.07527 1.07527,1.07527c0.53763,0 1.77037,-0.38016 2.15053,0c0.38017,0.38017 0.69511,0.15747 1.07527,0.53764c0.38016,0.38017 0.53764,0.53763 1.07527,0.53763c0.53763,0 0.53763,-1.07527 0.53763,-1.6129c0,-1.07527 0,-2.15054 0,-2.68818c0,-1.07527 0.53764,-2.15054 0.53764,-3.2258c0,-1.07527 0,-1.6129 0,-2.15054c0,-0.53764 0,-1.07527 -0.53764,-1.07527c-0.53763,0 -0.53763,-0.53764 -1.07526,-0.53764c-0.53764,0 -1.07527,0 -1.61292,0c-0.53763,0 -1.07526,0 -1.6129,0l-0.53763,0l-0.53764,0" id="svg_7" stroke="#fff" fill="none"/>
  <path d="m206.98926,49.46238c0,1.07527 0.53764,1.07527 0.53764,2.15054c0,1.07527 0.53763,2.15054 0.53763,3.22581c0,0.53764 0.53764,1.07527 0.53764,2.15054c0,1.07527 0,1.6129 0.53763,1.6129c1.07527,0 1.44809,-0.24667 2.15054,-0.53764c0.99342,-0.41148 2.05577,-0.26143 3.2258,-0.53764c0.52325,-0.12352 1.07527,0 1.07527,-0.53763c0,-1.07527 0.12352,-2.16492 0,-2.68818c-0.2762,-1.17002 -0.53763,-2.15054 -0.53763,-2.68817c0,-1.07527 0,-1.6129 0,-2.15054c0,-0.53764 0,-1.07527 -0.53764,-1.07527c-0.53763,0 -1.07527,0 -1.6129,0c-0.53763,0 -1.07527,0 -1.6129,0c-0.53764,0 -1.07527,0 -1.61292,0c-0.53763,0 -1.07526,0 -1.6129,0l-0.53763,0l0,-0.53763l-0.53764,0" id="svg_8" stroke="#fff" fill="none"/>
  <path d="m190.86023,31.72045c0,0.53763 0,1.07527 0,1.6129c0,1.07527 0,1.6129 0,2.15054c0,1.07527 0,1.6129 0,2.15054c0,0.53763 0,1.07527 0,1.6129c0,0.53763 0.69511,0.15747 1.07527,0.53763c0.38017,0.38017 0.85257,0.31494 1.6129,1.07527c0.38017,0.38017 0.53764,0.53764 1.07527,0.53764c1.07527,0 1.6129,0 2.15054,0c0.53763,0 1.23273,0.38017 1.6129,0c0.38017,-0.38017 0,-1.6129 0,-2.15054c0,-1.07527 0,-2.15054 0,-2.68818c0,-1.07527 0,-2.15054 0,-2.68817c0,-0.53764 0.20575,-1.1162 0,-1.6129c-0.29097,-0.70246 -1.07527,-0.53763 -1.6129,-0.53763c-1.07527,0 -1.51816,-0.26143 -2.68817,-0.53763c-0.52325,-0.12353 -1.07527,0 -1.61292,0l-0.53763,0" id="svg_9" stroke="#fff" fill="none"/>
  <path d="m207.5269,30.10754c0,0.53763 0.08029,1.33026 0.53763,1.6129c1.02264,0.63202 0.95175,2.16492 1.07527,2.68817c0.2762,1.17002 1.07527,2.15054 1.07527,3.22581c0,0.53763 0.53763,1.6129 0.53763,2.15054c0,0.53764 0.57857,0.74337 1.07527,0.53764c0.70245,-0.29097 0.74564,-1.56861 2.15054,-2.15054c0.99342,-0.41149 1.6129,-0.53764 2.15053,-1.07527c0.53764,-0.53764 1.23274,-0.15746 1.61292,-0.53764c0.38016,-0.38017 0,-1.07527 -1.07527,-2.15054c-0.53764,-0.53764 -1.3367,-1.51815 -1.6129,-2.68817c-0.24704,-1.0465 0,-1.6129 0,-2.68817c0,-1.07527 0.38016,-1.77037 0,-2.15054c-0.38017,-0.38017 -1.15712,-0.41149 -2.15054,0c-0.70245,0.29097 -1.51814,1.3367 -2.68817,1.6129c-0.52325,0.12353 -1.07527,0 -1.6129,0l-0.53764,0l0,0.53764l-0.53763,0" id="svg_10" stroke="#fff" fill="none"/>
  <path d="m194.08604,18.27958c-0.53764,0 -1.32195,0.37281 -1.61292,1.07527c-0.41148,0.99342 0,1.6129 0,2.15054c0,1.07527 0,1.6129 0,2.15054c0,0.53763 0.78432,0.37282 1.07527,1.07527c0.20575,0.49671 1.07527,1.07527 1.6129,1.07527c0.53764,0 0.56641,0.29058 1.61292,0.53763c1.17001,0.27621 2.15053,0.53764 2.68817,0.53764c0.53763,0 1.32195,0.16482 1.6129,-0.53764c0.20573,-0.49671 0.53763,-1.6129 0.53763,-2.15054c0,-1.07527 0.26143,-1.51814 0.53764,-2.68817c0.12352,-0.52325 0.53763,-1.07527 0.53763,-1.6129c0,-0.53763 0,-1.07527 -0.53763,-1.07527c-0.53764,0 -1.07527,0 -1.6129,0c-1.07527,0 -1.61292,0 -2.68819,0c-1.07526,0 -1.6129,0 -2.15053,0c-0.53764,0 -1.07527,-0.53763 -1.6129,-0.53763l-0.53764,0l-0.53763,0" id="svg_11" stroke="#fff" fill="none"/>
  <path d="m223.65593,83.33335c0.53764,0 0.99609,0.6307 1.6129,1.07527c0.97527,0.70293 1.71292,1.44761 2.68817,2.15054c1.23363,0.88915 2.15054,2.15054 3.22581,3.22581c1.07527,1.07527 1.6129,1.6129 2.68817,2.15054c1.07527,0.53764 2.15054,1.07528 3.2258,2.15054c0.53764,0.53764 1.51816,0.79906 2.68817,1.07527c0.52325,0.12353 1.51816,0.26143 2.68819,0.53764c1.04649,0.24704 1.6129,0 3.2258,0c1.07527,0 1.6129,0 2.68817,0c1.07527,0 2.15054,0 3.76344,0c1.07527,0 1.98572,-0.24667 2.68817,-0.53764c1.49013,-0.61723 2.68816,0 3.76344,0c0.53763,0 1.61292,0 2.68817,0c0.53763,0 1.61292,0 2.68817,0c0.53763,0 1.61292,0 2.68817,0c0.53763,0 1.61292,-0.53764 2.68817,-0.53764c0.53763,0 1.07526,-0.53764 1.61292,-0.53764c0.53763,0 0.9805,-0.26143 2.15051,-0.53763c1.04651,-0.24705 2.15054,-0.53764 2.68817,-0.53764c0.53766,0 1.33026,-0.08029 1.61292,-0.53764c0.63202,-1.02264 1.44809,-0.7843 2.15054,-1.07527c0.4967,-0.20574 1.07526,0.00001 2.15054,-0.53763c1.07526,-0.53763 1.53372,-0.63069 2.15054,-1.07527c0.97525,-0.70292 1.77036,-0.15748 2.15051,-0.53764c0.38016,-0.38017 1.07529,-0.53764 1.61292,-0.53764c1.07526,0 1.61292,0 1.61292,-0.53764l0.53763,0" id="svg_19" stroke="#fff" fill="none"/>
  <path d="m289.24734,88.17206c-0.53766,0 -1.32196,0.16482 -1.61292,-0.53763c-0.20575,-0.49671 -0.85257,0.22271 -1.61292,-0.53764c-0.38016,-0.38017 -0.69821,-0.50997 -1.61288,-1.07527c-1.02264,-0.63203 -1.08966,-1.48938 -1.61292,-1.6129c-1.17001,-0.27621 -1.44806,-1.32195 -2.15054,-1.61291c-0.99341,-0.41147 -1.44806,-1.32194 -2.15054,-1.6129c-0.4967,-0.20573 -0.6951,-0.69511 -1.07526,-1.07527c-0.76031,-0.76032 -1.61292,-1.07527 -2.15054,-1.6129c-0.53763,-0.53764 -1.07526,-0.53764 -1.61288,-1.07527c-0.53766,-0.53764 -0.61795,-0.79263 -1.07529,-1.07527c-1.02264,-0.63203 -1.23273,-1.77037 -1.61288,-2.15054c-0.38019,-0.38018 -0.53766,-0.53764 -1.07529,-1.07527c-0.53763,-0.53763 -0.86951,-1.11619 -1.07526,-1.6129c-0.29095,-0.70245 -1.07529,-1.07527 -1.07529,-2.15054c0,-0.53764 -0.15747,-1.23274 -0.53763,-1.61291c-0.38016,-0.38016 -0.79904,-0.44288 -1.07526,-1.6129c-0.12354,-0.52325 -0.53763,-0.53764 -0.53763,-1.61291c0,-0.53763 0,-1.07527 0,-1.6129c0,-0.53764 -0.53766,-0.53764 -0.53766,-1.07527c0,-1.07527 0,-1.6129 0,-2.15054c0,-0.53764 -0.15747,-0.69511 -0.53763,-1.07527c-0.76035,-0.76033 0,-1.6129 0,-2.15054c0,-0.53764 0,-1.07527 0,-1.6129c0,-0.53764 0,-1.07527 0,-1.6129c0,-0.53763 0.41409,-1.08965 0.53763,-1.6129c0.27621,-1.17004 0.12619,-1.69475 0.53766,-2.68817c0.29095,-0.70245 0.61792,-1.33025 1.07526,-1.6129c1.02264,-0.63203 0.33188,-1.65383 0.53763,-2.15054c0.29095,-0.70245 1.16833,-0.99609 1.61292,-1.6129c0.70291,-0.97527 -0.22269,-2.46548 0.53763,-3.22581c0.38016,-0.38016 0.90997,-1.17527 1.61292,-2.15054c0.44458,-0.6168 1.07526,-1.6129 1.07526,-2.68817c0,-0.53764 1.16833,-0.99608 1.61292,-1.6129c0.70294,-0.97525 1.26135,-1.45456 2.15051,-2.68817c0.70294,-0.97527 1.15558,-1.86789 1.61292,-2.15054c1.02264,-0.63203 0.86951,-1.65383 1.07526,-2.15054c0.29099,-0.70247 1.15558,-0.79262 1.61292,-1.07527c1.02264,-0.63203 1.07529,-1.6129 1.61292,-1.6129c0.53763,0 0.3728,-0.7843 1.07526,-1.07527c0.4967,-0.20574 0.53763,-0.53764 1.07529,-0.53764c0.53763,0 -0.53766,0 -1.61292,-0.53763c-1.07526,-0.53763 -2.07135,-0.6307 -2.68817,-1.07527c-0.97528,-0.70294 -2.15054,-1.07527 -3.2258,-1.07527c-0.53766,0 -1.61292,-0.53763 -2.68817,-0.53763c-0.53766,0 -1.61292,0 -2.68817,0c-0.53766,0 -1.61292,-0.53764 -2.68817,-0.53764c-0.53766,0 -1.61292,0 -2.68817,0c-0.53766,0 -1.61292,0 -2.15054,0c-1.07529,0 -2.15054,-0.53763 -2.68817,-0.53763c-0.53763,0 -1.07529,0 -1.61292,0c-0.53763,0 -1.61292,0 -2.15054,0c-0.53763,0 -1.07526,0 -2.15053,0c-0.53763,0 -1.6129,0 -2.15054,0c-0.53763,0 -1.07527,0 -1.6129,0c-0.53763,0 -1.07527,0 -1.6129,0c-0.53764,0 -1.07527,0 -1.6129,0c-1.07527,0 -1.61292,0 -2.15054,0c-0.53763,0 -1.07527,0 -1.6129,0c-0.53764,0 -0.69511,0.15747 -1.07527,0.53763c-0.38016,0.38016 -1.07527,0 -1.6129,0c-0.53764,0 -1.07527,0.53764 -1.61292,0.53764c-0.53763,0 -1.07526,0 -1.6129,0c-0.53763,0 -1.07527,0 -1.6129,0c-0.53763,0 -1.1162,-0.20574 -1.6129,0c-0.70245,0.29096 -1.07527,0.53763 -1.6129,0.53763c-0.53764,0 -1.07527,0 -1.61292,0c-0.53763,0 -1.07527,0 -1.6129,0c-0.53763,0 -1.07527,0 -1.6129,0l-0.53764,0l-0.53763,0" id="svg_20" stroke="#fff" fill="none"/>
  <polyline stroke-linecap="round" id="svg_21" points="270.4301274418831,129.56991243362427 270.4301274418831,130.1075468659401 " stroke="#fff" fill="none"/>
  <path d="m224.19357,74.7312c0,0.53764 0.57855,0.33189 1.07526,0.53764c0.70245,0.29096 1.32195,0.37281 1.61292,1.07526c0.20575,0.49671 1.23273,0.15746 1.6129,0.53764c0.38017,0.38017 0.53763,0.53764 1.6129,1.07527c1.07527,0.53764 2.15054,1.07526 3.22581,1.07526c0.53763,0 1.07526,0 1.6129,0c0.53763,0 1.69475,0.12614 2.68817,0.53764c0.70245,0.29097 1.92784,-0.22269 2.68817,0.53764c0.38017,0.38017 1.07527,0.53764 2.15054,0.53764c0.53763,0 1.44807,0.24667 2.15053,0.53764c0.99342,0.41149 2.15054,0 2.68817,0c1.07527,0 1.6129,0 2.15054,0c0.53763,0 1.6129,0 2.68817,0c0.53763,0 1.07527,0 2.15054,0c0.53763,0 1.07526,0 2.15053,0c0.53763,0 1.07526,0 2.15054,0c0.53763,0 1.07526,0 1.61292,0c0.53763,0 1.07526,0 2.15051,0c1.07529,0 1.61292,0 2.15054,0c0.53763,0 1.07529,0 1.61292,0c0.53763,0 1.23273,0.38016 1.61288,0c0.38016,-0.38017 0.53766,-0.53764 1.07529,-0.53764c0.53763,0 0.91043,-0.24667 1.61288,-0.53764c0.49673,-0.20576 1.07529,0 1.61292,0l0.53763,-0.53764l0.53763,0" id="svg_22" stroke="#fff" fill="none"/>
  <path d="m225.80647,63.44088c0,0.53764 0.37282,0.78431 1.07527,1.07527c0.4967,0.20574 0.3728,0.7843 1.07526,1.07527c0.49672,0.20575 1.1162,0.33189 1.61292,0.53764c0.70245,0.29097 0.91045,0.7843 1.6129,1.07526c0.99342,0.41148 1.44809,0.24667 2.15054,0.53764c0.99341,0.41148 2.16492,0.41411 2.68817,0.53764c1.17001,0.27621 2.15053,0.53764 2.68817,0.53764c0.53763,0 1.6129,0 2.15053,0c0.53764,0 1.07527,0 1.61292,0c0.53763,0 1.6129,0 2.15053,0c0.53764,0 1.6129,0 2.15054,0c1.07527,0 2.15053,0 2.68817,0c1.07527,0 2.15053,0 2.68817,0c0.53763,0 1.07527,0 1.6129,0c0.53764,0 1.07527,0 1.6129,0c0.53764,0 1.23274,0.38016 1.6129,0c0.38016,-0.38017 0.57855,-0.33188 1.07529,-0.53764c0.70245,-0.29097 1.07526,-0.53764 1.61288,-0.53764c0.53766,0 0.91046,-0.24667 1.61292,-0.53764c0.4967,-0.20574 1.07526,0 1.61292,0c0.53763,0 1.07526,0 1.61288,0c0.53763,0 1.07529,0 1.61292,0c0.53763,0 1.07526,0 1.61288,0l0.53766,0" id="svg_23" stroke="#fff" fill="none"/>
  <path d="m226.88174,45.69894c0,1.07527 0.15746,1.23274 0.53763,1.6129c0.38016,0.38016 0.91045,0.7843 1.6129,1.07527c0.49672,0.20575 1.07527,0 1.6129,0c0.53764,0 1.1162,0.33189 1.61292,0.53764c0.70245,0.29097 1.65382,0.3319 2.15053,0.53764c0.70245,0.29096 1.44809,0.7843 2.15054,1.07527c0.99342,0.41149 2.15054,0 3.2258,0c0.53764,0 1.15712,-0.41148 2.15054,0c0.70245,0.29097 1.07527,0.53764 1.6129,0.53764c0.53764,0 1.07527,0 1.61292,0c0.53763,0 1.07526,0 2.15053,0c0.53764,0 1.6129,0 2.68817,0c0.53764,0 1.6129,0 2.68817,0c0.53764,0 1.07527,0 2.15054,0c1.07527,0 1.6129,0 2.15053,0c0.53763,0 1.07529,0 1.61292,0c0.53763,0 1.07526,0 1.61292,0c0.53763,0 1.07526,0 1.61288,0l0.53763,0l0.53766,0" id="svg_24" stroke="#fff" fill="none"/>
  <path d="m226.3441,31.72045c0.53764,0.53763 1.6129,0.53763 2.15054,0.53763c1.07527,0 1.98572,0.24667 2.68817,0.53764c0.99342,0.41148 2.05579,0.26143 3.2258,0.53763c0.52325,0.12353 1.61292,0 2.68817,0c0.53764,0 1.61292,0 2.68817,0c0.53764,0 1.61292,0 2.15054,0c0.53764,0 1.15712,-0.41149 2.15054,0c0.70245,0.29097 1.6129,0.53764 2.15053,0.53764c1.07527,0 2.15054,0 2.68817,0c0.53764,0 1.07527,0 1.61292,0c1.07526,0 2.15053,0 2.68817,0c0.53763,0 1.6129,0 2.68817,0c1.07526,0 1.61288,0 2.68817,0c1.07526,0 1.61292,0 2.68817,0c0.53763,0 1.07526,0 2.15054,0c0.53763,0 1.07526,0 1.61288,0c0.53766,0 1.07529,0 1.61292,0c1.07526,0 1.77039,0.38016 2.15054,0c0.38016,-0.38017 0.6951,-0.15747 1.07526,-0.53764c0.38016,-0.38017 0.53763,-0.53763 1.07529,-0.53763c0.53763,0 1.11618,0.20574 1.61288,0c0.70245,-0.29097 1.07529,-0.53764 1.61292,-0.53764l0.53763,0" id="svg_25" stroke="#fff" fill="none"/>
  <path d="m344.62369,17.74195c0,-0.53764 0.38016,-1.23274 0,-1.6129c-0.38016,-0.38016 -0.98087,-0.05262 -1.61292,-1.07527c-0.28265,-0.45734 -0.57855,-0.3319 -1.07526,-0.53763c-0.70248,-0.29096 -0.69513,-0.69511 -1.07529,-1.07527c-0.38016,-0.38017 -0.53763,-0.53763 -1.07526,-0.53763c-0.53763,0 -1.07529,0 -1.61292,0c-0.53763,0 -1.07526,0 -1.61288,0c-0.53766,0 -0.86954,0.04092 -1.07529,0.53763c-0.29095,0.70245 -1.32193,0.37282 -1.61288,1.07527c-0.20575,0.49671 -1.07529,1.07527 -1.61292,1.6129c-0.53763,0.53763 -0.57855,0.86953 -1.07526,1.07527c-0.70248,0.29097 -1.07529,0.53764 -1.07529,1.07527c0,0.53763 -0.33188,0.57856 -0.53763,1.07527c-0.29095,0.70245 -0.7843,0.91045 -1.07526,1.6129c-0.4115,0.99342 0,1.6129 0,2.68817c0,0.53763 0,1.6129 0,2.68817c0,1.07527 0,1.6129 0,2.15054c0,0.53764 0.15747,1.23274 0.53763,1.6129c0.38016,0.38016 0.53763,0.53763 0,1.07527c-0.53763,0.53763 -1.07529,1.07527 -1.61292,1.07527c-0.53763,0 -0.3728,0.7843 -1.07526,1.07527c-0.4967,0.20574 -0.69513,0.15747 -1.07529,0.53764c-0.38016,0.38016 -0.91043,0.24667 -1.61288,0.53764c-0.4967,0.20574 -1.32196,-0.16482 -1.61292,0.53763c-0.20575,0.49671 -0.91043,0.78431 -1.61292,1.07527c-0.4967,0.20573 -1.23273,-0.38016 -1.61288,0c-0.38016,0.38017 -0.57855,0.33188 -1.07529,0.53763c-0.70245,0.29097 -0.91043,0.78431 -1.61288,1.07527c-0.4967,0.20574 -1.11621,-0.20574 -1.61292,0c-0.70245,0.29097 -1.23273,0.15747 -1.61288,0.53763c-0.38016,0.38017 -0.1575,0.69511 -0.53766,1.07527c-0.38016,0.38016 -1.07526,0 -1.07526,0.53763c0,0.53764 0,1.07527 0,1.6129c0,0.53764 0,1.07527 0,1.6129c0,0.53764 -0.38016,1.23274 0,1.6129c0.38016,0.38016 0.57855,0.3319 1.07526,0.53764c0.70248,0.29096 0.69513,0.69511 1.07529,1.07527c0.38016,0.38017 0.57855,0.33189 1.07526,0.53763c0.70245,0.29097 0.3728,1.32194 1.07529,1.6129c0.4967,0.20573 1.07526,0 1.61288,0c0.53763,0 1.07529,0 1.61292,0c0.53763,0 1.07526,0 1.61288,0c0.53766,0 1.07529,0 1.61292,0c0.53763,0 1.07529,-0.53763 1.61292,-0.53763c0.53763,0 0.53763,-0.53764 1.07526,-0.53764c0.53763,0 0.69513,-0.15747 1.07529,-0.53764c0.76031,-0.76032 1.23273,-0.15747 1.61288,-0.53763c0.38016,-0.38016 1.07529,-0.53764 1.61292,-0.53764c0.53763,0 1.23273,0.38016 1.61288,0c0.38016,-0.38017 0.53766,-0.53763 1.07529,-0.53763c0.53763,0 0.53763,-0.53764 1.07526,-0.53764c0.53763,0 0.69513,-0.15747 1.07529,-0.53764c0.38016,-0.38016 1.61288,0.53763 1.61288,0c0,-0.53763 -0.91043,0.24667 -1.61288,0.53764c-0.49673,0.20575 -0.53766,0.53764 -1.07529,0.53764c-0.53763,0 -1.32193,-0.16482 -1.61288,0.53763c-0.20575,0.49671 -0.37283,0.7843 -1.07529,1.07527c-0.4967,0.20574 -1.11618,0.3319 -1.61288,0.53764c-0.70248,0.29097 -0.55203,0.95174 -1.07529,1.07527c-1.17001,0.27621 -0.91043,1.32194 -1.61288,1.6129c-0.49673,0.20575 -1.07529,0.53764 -1.61292,1.07527c-0.53763,0.53763 -0.6951,0.6951 -1.07526,1.07527c-0.38019,0.38018 -0.57858,0.33189 -1.07529,0.53764c-0.70245,0.29097 -0.6951,0.69511 -1.07526,1.07527c-0.38016,0.38017 0,1.07527 0.53763,1.07527c0.53763,0 0.3728,0.7843 1.07526,1.07527c0.49673,0.20575 0.69513,0.15747 1.07529,0.53764c0.38016,0.38016 0.15747,0.6951 0.53763,1.07527c0.38016,0.38016 1.07526,0 1.61292,0c0.53763,0 1.07526,0 1.61288,0c0.53763,0 1.23276,-0.15747 1.61292,-0.53763c0.38016,-0.38017 0.53763,-0.53764 1.07526,-0.53764c0.53763,0 0.69513,-0.6951 1.07529,-1.07527c0.38016,-0.38016 0.91043,-0.24667 1.61288,-0.53764c0.4967,-0.20574 0.6951,-0.15746 1.07529,-0.53764c0.38016,-0.38017 0.6951,-0.15747 1.07526,-0.53763c0.38016,-0.38017 0.57855,-0.3319 1.07526,-0.53764c0.70248,-0.29096 0.53766,-1.07527 1.07529,-1.07527c0.53763,0 1.07526,0 1.61288,0c0.53766,0 0.53766,-0.53764 1.07529,-0.53764c0.53763,0 1.07526,0 1.61288,-0.53763l0.53766,0l0.53763,0" id="svg_26" stroke="#fff" fill="none"/>
  <path d="m345.16132,16.12905c0,0.53763 0.57855,0.86953 1.07526,1.07527c0.70248,0.29097 0.1575,1.23274 0.53766,1.6129c0.38016,0.38016 0.33188,0.57856 0.53763,1.07527c0.29095,0.70245 1.07526,0.53763 1.07526,1.07527c0,0.53764 0.53763,0.53763 1.07529,1.07527c0.53763,0.53763 0.57855,0.86953 1.07526,1.07527c0.70245,0.29097 0.6951,1.23274 1.07526,1.6129c0.38019,0.38018 0.69513,0.15747 1.07529,0.53764c0.38016,0.38016 0.15747,0.6951 0.53763,1.07527c0.38016,0.38016 0.6951,0.15747 1.07526,0.53764c0.38019,0.38018 0.1575,0.6951 0.53766,1.07527c0.38016,0.38016 1.07526,0.53763 1.07526,1.07527c0,0.53763 0.15747,0.6951 0.53763,1.07527c0.38016,0.38016 0.7843,0.3728 1.07529,1.07527c0.20575,0.49671 0.15747,0.6951 0.53763,1.07527c0.38016,0.38016 0.6951,0.15747 1.07526,0.53764c0.38016,0.38017 0.04092,0.86953 0.53763,1.07527c0.70248,0.29097 0.53766,1.07527 1.07529,1.6129c0.53763,0.53764 0.6951,0.6951 1.07526,1.07527c0.38016,0.38016 0.57855,0.33188 1.07529,0.53764c0.70245,0.29097 0.91043,1.32194 1.61288,1.6129c0.49673,0.20575 0.57858,0.33189 1.07529,0.53764c0.70245,0.29097 0.61948,0.6638 1.61288,1.07527c0.70248,0.29096 0.57858,0.86953 1.07529,1.07527c0.70245,0.29097 0.91043,0.7843 1.61288,1.07527c0.49673,0.20575 0.69513,0.15747 1.07529,0.53764c0.38016,0.38017 0.6951,0.15747 1.07526,0.53764c0.38016,0.38017 0.6951,0.69509 1.07529,1.07527c0.38016,0.38017 0.3728,0.7843 1.07526,1.07527c0.4967,0.20574 0.6951,0.6951 1.07526,1.07527c0.38019,0.38018 1.23276,-0.38016 1.61292,0c0.38016,0.38017 0.15747,0.69511 0.53763,1.07527c0.38016,0.38017 0.6951,0.15745 1.07529,0.53763c0.38016,0.38017 0,1.07527 0.53763,1.07527c0.53763,0 1.07526,0.53763 2.15054,0.53763c1.07526,0 2.15051,0 2.68817,0c1.07526,0 1.98572,0.24667 2.68817,0.53764c0.99341,0.41149 2.23239,0.12615 3.2258,0.53764c0.70245,0.29097 1.07526,0.53763 2.15054,0.53763c0.53763,0 1.07526,0.53764 2.15054,0.53764c0.53763,0 1.07526,0 2.15051,0c0.53766,0 1.51816,0.26143 2.68817,0.53764c1.04651,0.24706 1.51816,0.26143 2.68817,0.53763c1.04651,0.24705 1.51816,0.26143 2.68817,0.53764c0.52328,0.12353 1.07529,0 1.61292,0c0.53763,0 1.07529,0.53763 1.61292,0.53763c0.53763,0 1.11618,-0.20573 1.61288,0c0.70248,0.29097 1.07529,0.53764 1.61292,0.53764c0.53763,0 1.07526,0 1.61292,0c0.53763,0 1.07526,0 1.61288,0c0.53763,0 1.07529,0 1.61292,0c0.53763,0 1.07526,0 1.61288,0c0.53766,0 1.07529,0 1.61292,0c0.53763,0 1.07526,0 1.61292,0c0.53763,0 1.07526,-0.53764 1.61288,-0.53764c0.53763,0 0.53763,-0.53763 1.07529,-0.53763c0.53763,0 1.07526,0 1.61288,0c0.53763,0 1.07529,0 1.61292,0c0.53763,0 1.11618,0.20575 1.61292,0c0.70245,-0.29097 1.11618,-0.86953 1.61288,-1.07527c0.70245,-0.29097 1.11621,-0.33189 1.61292,-0.53764c0.70245,-0.29097 1.65381,-0.33188 2.15054,-0.53764c0.70245,-0.29097 1.44806,-0.7843 2.15051,-1.07527c0.99344,-0.4115 2.15054,-0.53764 3.22583,-0.53764c0.53763,0 1.17526,0.16528 2.15051,-0.53763c0.61682,-0.44458 1.07529,-1.07527 2.15054,-1.07527c0.53763,0 0.91046,-0.7843 1.61292,-1.07527c0.4967,-0.20574 1.07526,-0.53764 1.61288,-0.53764c0.53766,0 0.69513,-0.15747 1.07529,-0.53763c0.38016,-0.38016 1.61292,0.00002 1.61292,-0.53764c0,-0.53766 -0.69513,0.15747 -1.07529,0.53764c-0.38016,0.38016 -0.6951,0.6951 -1.07526,1.07527c-0.38019,0.38018 -0.78433,0.37282 -1.07529,1.07527c-0.20575,0.49671 -0.6951,0.15747 -1.07526,0.53764c-0.38016,0.38017 0.38016,1.23274 0,1.6129c-0.38016,0.38016 -0.57855,0.33188 -1.07529,0.53764c-0.70245,0.29097 -0.7843,0.91045 -1.07526,1.6129c-0.20575,0.49671 -0.33188,1.11619 -0.53763,1.6129c-0.29095,0.70245 -1.23276,0.69511 -1.61292,1.07527c-0.38016,0.38017 0,1.07527 -0.53763,1.07527c-0.53763,0 -0.6951,0.15747 -1.07526,0.53764c-0.38016,0.38017 0,1.07527 -0.53766,1.07527c-0.53763,0 -0.86951,0.57856 -1.07526,1.07527c-0.29095,0.70245 -1.23273,0.15746 -1.61292,0.53764c-0.38016,0.38017 -0.3728,0.7843 -1.07526,1.07527c-0.4967,0.20574 -0.53763,0.53764 -1.07526,0.53764c-0.53766,0 -0.69513,0.15747 -1.07529,0.53763c-0.38016,0.38017 -0.3728,0.78431 -1.07526,1.07527c-0.4967,0.20574 -1.11621,-0.20574 -1.61292,0c-0.70245,0.29097 -1.07526,0.53763 -1.61288,0.53763c-0.53766,0 -1.07529,0.53764 -1.61292,0.53764c-0.53763,0 -0.91046,0.24667 -1.61292,0.53763c-0.4967,0.20574 -1.07526,0 -1.61288,0c-0.53766,0 -1.07529,0 -1.61292,0c-0.53763,0 -0.9805,0.26143 -2.15054,0.53764c-0.52325,0.12352 -0.9805,0.26143 -2.15054,0.53764c-0.52325,0.12352 -1.07526,0 -1.61288,0c-0.53763,0 -0.69513,0.15747 -1.07529,0.53764c-0.38016,0.38016 -1.07526,0 -1.61288,0c-0.53763,0 -1.07529,0 -1.61292,0c-0.53763,0 -0.6951,0.15747 -1.07526,0.53764c-0.38016,0.38016 -1.07529,0 -1.61292,0c-0.53763,0 -0.91043,0.24667 -1.61288,0.53763c-0.49673,0.20575 -1.07529,0 -1.61292,0c-0.53763,0 -1.23276,-0.38016 -1.61292,0c-0.38016,0.38017 -0.53763,0.53764 -1.07526,0.53764c-0.53763,0 -1.07529,0 -1.61292,0c-0.53763,0 -1.07526,0 -1.61288,0c-0.53766,0 -1.07529,0 -1.61292,0c-0.53763,0 -1.07526,0 -1.61292,0c-0.53763,0 -1.23273,-0.38016 -1.61288,0c-0.38016,0.38017 -0.53763,0.53764 -1.07529,0.53764c-0.53763,0 -1.07526,0 -1.61288,0c-0.53763,0 -1.07529,0.53764 -1.61292,0.53764c-0.53763,0 -0.91043,0.24667 -1.61288,0.53764c-0.49673,0.20576 -1.32196,0.37282 -1.61292,1.07526c-0.20575,0.49671 0,1.07527 0,1.61291c0,0.53764 0,1.07526 0,1.6129c0,0.53764 0.38016,1.23274 0,1.61291c-0.38016,0.38016 -0.53763,0.53764 -0.53763,1.07526c0,0.53764 -0.24667,0.91045 -0.53763,1.61291c-0.20575,0.49671 0,1.07526 0,1.6129c0,0.53764 -0.53766,1.07527 -0.53766,1.61291c0,0.53764 0,1.07526 0,1.6129c0,0.53764 0,1.07527 0,1.61291c0,0.53763 0,1.07526 0,1.6129c0,0.53764 -0.15747,0.69511 -0.53763,1.07527c-0.38016,0.38017 -0.15747,1.23273 -0.53763,1.6129c-0.38016,0.38016 -0.53763,0.53764 -0.53763,1.07527c0,0.53764 -0.53766,1.07527 -1.07529,1.07527c-0.53763,0 -1.07526,0 -1.61288,0c-0.53766,0 -1.07529,0 -1.61292,0c-0.53763,0 -1.07526,0 -1.61292,0c-0.53763,0 -1.23273,-0.38016 -1.61288,0c-0.38016,0.38016 -0.53763,0.53763 -1.07529,0.53763c-0.53763,0 -1.07526,0 -1.61288,0c-0.53763,0 -1.07529,0 -1.61292,0c-0.53763,0 0.24667,0.16482 0.53763,-0.53763c0.20575,-0.49671 0.1575,-0.69511 0.53766,-1.07527c0.38016,-0.38016 1.07526,-0.53764 1.07526,-1.07527c0,-0.53764 0.6951,-0.15748 1.07526,-0.53764c0.38016,-0.38016 0.1575,-0.6951 0.53766,-1.07526c0.38016,-0.38016 1.23273,0.38016 1.61288,0c0.38016,-0.38017 0.53763,-0.53764 1.07529,-0.53764c0.53763,0 0,-0.53764 0,-1.07527c0,-0.53764 0,-1.07526 0,-1.6129c0,-0.53764 0.38016,-1.23274 0,-1.61291c-0.38019,-0.38018 -0.53766,-0.53763 -0.53766,-1.07526c0,-0.53764 0,-1.07527 0,-1.61291c0,-0.53764 0,-1.07526 0,-1.6129c0,-0.53764 0.38016,-1.23274 0,-1.61291c-0.38016,-0.38016 -0.53763,-0.53763 -0.53763,-1.07526c0,-0.53764 -0.15747,-0.69511 -0.53763,-1.07527c-0.38016,-0.38016 -0.15747,-0.69511 -0.53763,-1.07527c-0.38016,-0.38016 -1.23276,-0.15747 -1.61292,-0.53763c-0.38016,-0.38017 0,-1.07527 -0.53763,-1.07527c-0.53763,0 -0.6951,-0.15748 -1.07526,-0.53764c-0.38016,-0.38017 -0.53766,-0.53764 -1.07529,-0.53764c-0.53763,0 -0.53763,-0.53763 -1.07526,-0.53763c-0.53763,0 -0.53763,-0.53764 -1.07529,-0.53764c-0.53763,0 -0.53763,-0.53764 -1.07526,-0.53764c-0.53763,0 -0.53763,-0.53764 -1.07526,-0.53764c-0.53766,0 -1.07529,0 -1.61292,0c-0.53763,0 -0.6951,-0.15748 -1.07526,-0.53764c-0.38016,-0.38017 -0.69513,-0.15748 -1.07529,-0.53764c-0.38016,-0.38016 -0.6951,-0.69511 -1.07526,-1.07526c-0.38016,-0.38017 -0.1575,-0.69511 -0.53766,-1.07527c-0.38016,-0.38016 -0.6951,-0.15748 -1.07526,-0.53764c-0.38016,-0.38017 -0.15747,-0.6951 -0.53763,-1.07527c-0.38016,-0.38016 -0.69513,-0.6951 -1.07529,-1.07527c-0.38016,-0.38016 -1.23273,0.38016 -1.61288,0c-0.38016,-0.38017 -0.6951,-0.69509 -1.07529,-1.07527c-0.38016,-0.38017 -0.3728,-0.78431 -1.07526,-1.07527c-0.4967,-0.20574 -0.86951,-0.04093 -1.07526,-0.53763c-0.29099,-0.70247 -1.11621,-0.33189 -1.61292,-0.53764c-0.70245,-0.29097 -0.53763,-1.07527 -1.07526,-1.07527c-0.53763,0 0,1.07527 0,1.6129c0,0.53763 -0.15747,0.69509 -0.53766,1.07527c-0.38016,0.38017 -0.15747,0.69511 -0.53763,1.07527c-0.38016,0.38017 -0.33188,1.1162 -0.53763,1.6129c-0.29095,0.70245 -0.15747,1.23274 -0.53763,1.6129c-0.38016,0.38016 -1.07529,0.53764 -1.07529,1.07527c0,0.53764 0.38016,1.23273 0,1.6129c-0.38016,0.38016 -0.15747,0.69511 -0.53763,1.07527c-0.38016,0.38016 -0.53763,0.53764 -1.07526,0.53764c-0.53763,0 -0.7843,-0.3728 -1.07529,-1.07527c-0.20575,-0.49671 0.20575,-1.1162 0,-1.6129c-0.29095,-0.70245 -0.53763,-1.07527 -0.53763,-1.61291c0,-0.53764 0,-1.6129 0,-2.15054c0,-0.53764 0,-1.07527 -0.53763,-1.07527c-0.53763,0 -0.86951,1.1162 -1.07526,1.6129c-0.29099,0.70247 -0.69513,0.69511 -1.07529,1.07527c-0.38016,0.38017 -1.07526,1.07527 -0.53763,1.07527c0.53763,0 0.24667,-0.91045 0.53763,-1.6129c0.20575,-0.49671 0.53763,-1.07527 0.53763,-1.6129c0,-0.53764 0.57858,-0.86953 1.07529,-1.07527c0.70245,-0.29097 0.6951,-0.69511 1.07526,-1.07527c0.38016,-0.38017 0.15747,-0.6951 0.53763,-1.07527c0.38019,-0.38018 0.53766,-0.53763 0.53766,-1.07527c0,-0.53764 0,-1.07527 0,-1.6129c0,-0.53764 0,-1.07527 0,-1.6129c0,-0.53764 0.38016,-1.23274 0,-1.6129c-0.38019,-0.38018 -0.37283,-0.7843 -1.07529,-1.07527c-0.4967,-0.20574 -1.07526,0 -1.61288,0c-0.53766,0 -1.07529,0 -1.61292,0c-0.53763,0 -1.07529,0 -1.61292,0l-0.53763,0l0,-0.53764l-0.53763,0" id="svg_27" stroke="#fff" fill="none"/>
  <path d="m360.21509,48.92475c0.53763,0 1.07526,0 1.61288,0c0.53763,0 1.07529,0 1.61292,0c0.53763,0 1.07526,0 1.61292,0c0.53763,0 1.61288,0 2.15051,0c0.53766,0 1.53372,-0.6307 2.15054,-1.07527c0.97528,-0.70294 1.45456,-1.79903 2.68817,-2.68817c0.97528,-0.70294 2.15054,-1.61291 3.2258,-2.68818c1.07529,-1.07528 1.98523,-2.25054 2.68817,-3.2258c0.88916,-1.23363 2.15054,-1.6129 3.22583,-2.68818c1.07526,-1.07526 2.33664,-1.99217 3.2258,-3.22581c0.70294,-0.97526 1.71292,-1.98524 2.68817,-2.68817c0.61679,-0.44457 0.76282,-1.83809 1.61292,-2.68817c0.85007,-0.85006 1.79901,-1.45454 2.68817,-2.68817c0.70294,-0.97526 1.70593,-2.07137 2.15051,-2.68817c0.70294,-0.97527 0.37238,-2.25054 1.07529,-3.22581c0.44458,-0.61681 1.33667,-0.98051 1.61288,-2.15054c0.12354,-0.52325 0.41412,-1.08965 0.53766,-1.6129c0.27621,-1.17002 0.7843,-1.44809 1.07526,-2.15054c0.20575,-0.49671 0.53763,-0.53763 0.53763,-1.07527c0,-0.53763 0,-1.07527 0.53763,-1.07527c0.53766,0 0.91,1.17527 1.61292,2.15054c0.44458,0.61681 1.72409,2.04982 2.68817,3.22581c1.22894,1.4991 2.15054,2.68818 3.2258,3.76344c1.07529,1.07528 2.15054,1.61291 2.68817,2.68817c0.53766,1.07527 1.07529,2.15054 1.61292,2.68817c0.53763,0.53763 0.15747,1.23274 0.53763,1.6129c0.38016,0.38016 0.7843,0.3728 1.07529,1.07527c0.20575,0.49671 0.53763,1.07527 0.53763,1.6129c0,0.53763 0.53763,0.53763 0.53763,1.07527c0,0.53763 0.7843,0.91045 1.07526,1.6129c0.20575,0.49671 0.37283,1.32194 1.07529,1.6129c0.4967,0.20574 0.6951,1.23274 1.07526,1.6129c0.38016,0.38016 0.98087,0.05261 1.61292,1.07527c0.28265,0.45734 0.20575,1.11619 0,1.6129c-0.29095,0.70245 -0.7843,0.91044 -1.07529,1.6129c-0.20575,0.4967 -0.7843,0.37282 -1.07526,1.07527c-0.20575,0.49671 -0.3728,0.7843 -1.07526,1.07527c-0.49673,0.20575 -0.57858,0.33189 -1.07529,0.53764c-0.70245,0.29097 -0.6951,0.6951 -1.07526,1.07527c-0.38016,0.38016 -1.32196,-0.16481 -1.61292,0.53764c-0.20575,0.49671 -1.11618,0.86953 -1.61288,1.07527c-0.70248,0.29097 -1.64169,0.2906 -2.68817,0.53764c-1.17004,0.2762 -1.51816,1.3367 -2.6882,1.6129c-1.04648,0.24704 -2.52335,0.7843 -3.2258,1.07527c-0.99341,0.41149 -2.25055,0.37234 -3.2258,1.07527c-0.61682,0.44457 -1.69476,0.12615 -2.68817,0.53764c-0.70245,0.29097 -1.10403,0.82821 -2.15054,1.07527c-1.17001,0.27621 -1.44806,0.78431 -2.15054,1.07527c-0.99341,0.41147 -1.51813,0.26143 -2.68817,0.53763c-1.04648,0.24704 -2.19144,-0.20575 -2.68817,0c-0.70245,0.29097 -0.91043,0.7843 -1.61288,1.07527c-0.99344,0.4115 -1.23276,0.15747 -1.61292,0.53764c-0.38016,0.38016 -1.07526,0 -1.61292,0c-0.53763,0 -1.07526,0 -1.61288,0c-0.53763,0 -0.53763,0.53764 -1.07529,0.53764c-0.53763,0 -1.07526,0 -1.61288,0c-0.53763,0 -1.23276,-0.38016 -1.61292,0c-0.38016,0.38017 -0.53763,0.53763 -1.07526,0.53763c-0.53763,0 -1.07529,0 -1.61292,0c-0.53763,0 -1.07526,0 -1.61288,0c-0.53766,0 -1.23276,0.38016 -1.61292,0c-0.38016,-0.38017 -0.53763,-0.53763 -1.07526,-0.53763c-0.53766,0 -0.57858,-0.33189 -1.07529,-0.53764c-0.70245,-0.29097 -1.07526,-0.53764 -1.07526,-1.07527l-0.53763,0l-0.53766,0" id="svg_28" stroke="#fff" fill="none"/>
  <path d="m370.96777,45.69894c0.53763,0 1.07526,0.53764 1.61288,1.07527c0.53766,0.53764 1.11621,0.33189 1.61292,0.53764c0.70245,0.29097 0.91043,0.78431 1.61292,1.07527c0.4967,0.20573 1.07526,0.53764 1.61288,0.53764c1.07529,0 1.64169,-0.24704 2.68817,0c1.17004,0.27621 2.15054,0.53764 3.2258,0.53764c0.53766,0 1.07529,0 2.15054,0c0.53766,0 1.61292,0 2.68817,0c0.53766,0 1.61292,0 2.15054,0c0.53763,0 1.61292,0 2.68817,0c0.53763,0 1.61292,0 2.15054,0c0.53763,0 1.61292,0.53763 2.68817,0.53763c0.53763,0 1.61292,0 2.68817,0l0.53763,0l0.53763,0l0.53766,0" id="svg_29" stroke="#fff" fill="none"/>
  <path d="m379.56992,38.70969c0.53763,0 1.11618,-0.20575 1.61292,0c0.70245,0.29097 1.71289,0.37233 2.68817,1.07527c0.61682,0.44457 1.73566,0.45803 3.2258,1.07527c1.40491,0.58193 2.07135,1.70596 2.68817,2.15054c0.97525,0.70293 2.05579,1.3367 3.2258,1.6129c0.52325,0.12352 1.61292,0 2.68817,0c0.53763,0 1.61292,0 2.15054,0c0.53763,0 1.07526,0 2.15054,0c1.07526,0 1.07526,-0.53764 1.61288,-0.53764c0.53766,0 1.61292,-0.53763 2.15054,-0.53763l1.07529,-0.53764l0.53763,-0.53764l1.07526,0" id="svg_30" stroke="#fff" fill="none"/>
  <path d="m386.55917,31.18281c0.53763,0 1.79901,0.9169 2.68817,2.15054c0.70294,0.97526 2.02209,2.37414 3.76343,3.22581c1.52728,0.74697 2.78818,0.37233 3.76346,1.07527c0.61682,0.44457 1.64166,0.82821 2.68817,1.07527c1.17001,0.27621 1.61288,0.53764 2.15051,0.53764l0.53766,0l0.53763,0" id="svg_31" stroke="#fff" fill="none"/>
  <path d="m390.86023,26.3441c0.53766,0 1.07529,0 1.61292,0c1.07526,0 1.62729,-0.12352 2.15054,0c1.17001,0.27621 1.86789,0.61793 2.15054,1.07527c0.63202,1.02263 1.98569,0.7843 2.68817,1.07527c0.99341,0.41147 2.15051,0 2.68817,0c1.07526,0 2.16489,0.12353 2.68817,0c1.17001,-0.27621 1.61288,-0.53763 2.15054,-0.53763l-1.61292,0.53763" id="svg_32" stroke="#fff" fill="none"/>
  <path d="m329.56992,23.65593c0,-0.53763 0.44287,-1.3367 1.61292,-1.6129c0.52325,-0.12352 1.69473,0.4115 2.68817,0c0.70245,-0.29097 0.91043,-0.7843 1.61288,-1.07527c0.4967,-0.20574 1.07529,0 1.61292,0c0.53763,0 0.53763,-0.53763 1.07526,-0.53763c0.53763,0 1.07529,0 1.61292,0c0.53763,0 0.86951,0.04092 1.07526,0.53763c0.29095,0.70245 1.23276,0.15747 1.61292,0.53764c0.38016,0.38017 0,1.07527 0,1.6129c0,0.53763 -0.04092,0.86953 -0.53763,1.07527c-0.70248,0.29096 -0.98053,1.3367 -2.15054,1.6129c-0.52325,0.12352 -0.61948,0.12614 -1.61292,0.53763c-0.70245,0.29097 -1.65381,0.86951 -2.15054,1.07527c-0.70245,0.29097 -0.9805,0.79906 -2.15051,1.07527c-0.52328,0.12353 -1.07529,0.53764 -1.61292,0.53764c-0.53763,0 -1.07526,0 -1.61292,0.53763l-0.53763,0" id="svg_33" stroke="#fff" fill="none"/>
  <path d="m334.40863,25.26883c-0.53763,0 -0.53763,-0.53764 -1.07529,-0.53764l0.53766,0l0,0.53764l0.53763,0" id="svg_34" stroke="#fff" fill="none"/>
  <path d="m307.52692,48.92475c-0.53766,0 -1.10406,0.2906 -2.15054,0.53764c-1.17004,0.2762 -1.61292,0.53763 -2.15054,0.53763c-0.53763,0 -1.07526,0 -1.61292,0c-1.07526,0 -1.61288,0 -2.15054,0c-1.07526,0 -1.61288,0 -2.68817,0c-0.53763,0 -0.91043,-0.24667 -1.61288,-0.53763c-0.4967,-0.20574 -0.69513,-0.15747 -1.07529,-0.53764c-0.38016,-0.38016 -1.07526,-0.53764 -1.61288,-0.53764c-0.53763,0 -0.69513,-0.6951 -1.07529,-1.07527c-0.38016,-0.38016 -1.30045,-0.31243 -2.15051,0.53764c-0.8501,0.85007 -0.91,1.17527 -1.61292,2.15054c-0.44458,0.61681 -0.63763,0.90997 -1.61292,1.6129c-0.61682,0.44457 -1.1683,0.99609 -1.61288,1.6129c-0.70291,0.97527 -0.86954,1.11619 -1.07529,1.6129c-0.29095,0.70245 -1.23273,0.69511 -1.61288,1.07527c-0.38016,0.38017 -0.04092,0.86954 -0.53763,1.07527c-0.70248,0.29096 -1.07529,0.53763 -1.61292,1.07527c-0.53763,0.53764 -1.07529,1.07527 -1.61292,1.07527c-0.53763,0 -0.4967,0.74337 0,0.53764c1.40491,-0.58193 1.64169,-0.82823 2.68817,-1.07527c1.17004,-0.27621 1.98572,-0.78431 2.68817,-1.07527c0.99344,-0.4115 2.23239,-0.12613 3.22583,-0.53763c0.70245,-0.29097 1.17526,-0.37236 2.15051,-1.07527c0.61682,-0.44458 1.07529,-0.53763 1.61292,-0.53763c0.53763,0 1.07526,0 1.07526,0.53763c0,1.07527 0.16528,1.71291 -0.53763,2.68818c-0.88913,1.23362 -1.1279,2.59378 -2.15054,3.2258c-0.45734,0.28264 -1.07523,1.07529 -2.15051,2.15054c-0.53766,0.53764 -0.53766,1.6129 -0.53766,2.15054c0,0.53764 0,1.07526 0.53766,1.07526c0.53763,0 1.61288,0.00001 2.68817,-0.53763c1.07526,-0.53763 1.28326,-1.56861 2.68817,-2.15054c0.99341,-0.41148 2.15051,-1.07526 3.2258,-2.15054c0.53763,-0.53763 1.44806,-1.32194 2.15054,-1.6129c0.4967,-0.20573 0.6951,-0.15747 1.07526,-0.53764c0.38016,-0.38016 1.07526,0 1.07526,0.53764c0,1.07527 0,2.15054 -0.53763,2.68817c-0.53763,0.53764 -0.7843,0.91045 -1.07526,1.6129c-0.20575,0.49671 0.20575,1.1162 0,1.61291c-0.29095,0.70245 -0.33188,1.11619 -0.53763,1.6129c-0.29099,0.70247 -0.33191,1.1162 -0.53766,1.61291c-0.29095,0.70245 -0.53763,1.07526 -0.53763,1.6129c0,0.53764 0.02878,1.32233 1.07529,1.07527c1.17001,-0.27621 2.25052,-0.90997 3.2258,-1.61291c1.23361,-0.88914 1.30048,-2.37572 2.15054,-3.22581c0.85007,-0.85007 2.15054,-1.6129 2.68817,-1.6129c0.53763,0 0.91043,-0.24667 1.61288,-0.53764c0.49673,-0.20576 1.07529,0 1.07529,1.07527c0,1.07526 0,1.6129 0,2.68817c0,1.07526 0.38016,1.77037 0,2.15054c-0.38016,0.38016 -0.7843,0.3728 -1.07529,1.07527c-0.20575,0.4967 0,0 0,-0.53764c0,-1.07527 0.09308,-2.07135 0.53766,-2.68817c0.70294,-0.97526 0.7843,-1.98573 1.07526,-2.68817c0.20575,-0.49671 0,-1.07527 0,-1.61291c0,-0.53764 0,-1.6129 0,-2.68817c0,-0.53764 0,-1.6129 0,-2.15054c0,-0.53763 0,-1.07527 0,-2.15054c0,-0.53764 0,-1.07527 0,-1.6129c0,-0.53764 0,-1.07527 0,-1.6129c0,-0.53764 0,-1.07527 0,-1.6129c0,-0.53763 0,-1.07527 -0.53763,-1.6129l0,-0.53763l0,-0.53764" id="svg_36" stroke="#fff" fill="none"/>
  <path d="m182.25809,33.33335c-0.53764,0 -2.68817,0.53764 -4.30109,0.53764c-1.6129,0 -4.85481,0.81251 -6.98924,1.07527c-2.20012,0.27085 -4.30107,1.07527 -5.37634,1.07527c-1.07527,0 -2.23239,-0.41149 -3.22581,0c-0.70245,0.29097 -1.44807,0.7843 -2.15053,1.07527c-0.49672,0.20575 -1.65382,0.33189 -2.15054,0.53764c-0.70245,0.29097 -1.07527,0.53763 -1.6129,0.53763c-0.53764,0 -1.07527,0 -1.6129,0c-0.53764,0 -1.07527,0 -1.61292,0c-0.53763,0 -1.23273,0.38017 -1.6129,0c-0.38016,-0.38017 -0.15746,-0.6951 -0.53763,-1.07527c-0.38017,-0.38017 -1.07527,0 -1.07527,1.07527c0,0.53764 0.24704,1.64167 0,2.68817c-0.2762,1.17003 -0.53763,1.6129 -0.53763,2.68818c0,1.07527 0,1.6129 0,2.68817c0,1.07527 0,1.6129 0,2.68817c0,1.07527 0,2.15054 0,3.22581c0,1.6129 0,2.15054 0,3.76344c0,1.6129 0,3.22581 0,3.76344c0,1.6129 0,3.22581 0.53763,4.30107c0.53763,1.07527 0.82823,1.64167 1.07527,2.68818c0.2762,1.17002 0.79906,1.51814 1.07527,2.68817c0.24706,1.0465 0.24667,1.98572 0.53763,2.68817c0.41148,0.99342 0,2.15054 0,3.22581c0,0.53764 -0.24704,1.10403 0,2.15054c0.2762,1.17003 0.53763,1.6129 0.53763,2.15054c0,1.07527 0.53764,1.61291 0.53764,2.15054c0,0.53763 0.53763,1.07526 0.53763,1.6129c0,1.07527 0,1.6129 0,2.68817c0,1.07527 0,1.61291 0,2.68817c0,0.53764 0,1.07527 0,1.61291c0,1.07526 0,1.6129 0,2.15054c0,0.53764 0,1.07527 0,2.15054c0,0.53764 0,1.61291 0,2.15054c0,0.53763 0,1.07526 0,1.6129l-0.53763,0" id="svg_37" stroke="#fff" fill="none"/>
  <path d="m159.67743,68.27959c0.53764,0 1.51816,-0.26143 2.68817,-0.53764c0.52325,-0.12353 0.98051,-0.79906 2.15054,-1.07526c0.52324,-0.12352 1.07527,0 1.6129,0c0.53764,0 0.53764,1.07526 1.07527,2.15054c0.53763,1.07527 0.53763,1.6129 0.53763,2.68817c0,0.53764 0.53764,0.53764 0.53764,1.07527c0,1.07526 0,1.6129 -0.53764,1.6129c-1.07526,0 -2.15053,0 -2.68817,0c-0.53763,0 -1.07526,0 -1.6129,0c-0.53763,0 -0.86952,-0.04092 -1.07527,-0.53764c-0.29095,-0.70245 -0.53763,-1.07526 -0.53763,-1.6129c0,-1.07527 0,-2.15054 0,-2.68817c0,-0.53764 0,-1.07527 0,-1.61291l0,-0.53764l-0.53763,0l-0.53764,-0.53763" id="svg_38" stroke="#fff" fill="none"/>
  <path d="m155.37636,55.37636c0,-0.53764 0,-1.07527 0,-1.6129c0,-1.07527 0,-2.15054 0,-2.68817c0,-0.53764 0,-1.6129 0,-2.15054c0,-0.53764 0.7843,-0.91045 1.07527,-1.6129c0.20575,-0.49671 0.53763,-1.07527 1.07527,-1.07527c0.53763,0 1.07527,0 1.6129,0c0.53763,0 1.53372,0.63069 2.15054,1.07527c0.97525,0.70292 2.15053,0.53764 3.2258,1.07527c1.07527,0.53764 1.1162,0.86953 1.6129,1.07527c0.70245,0.29096 1.07527,0.53763 1.07527,1.07527c0,0.53764 -0.04092,0.86953 -0.53763,1.07527c-0.70245,0.29097 -0.69511,1.23274 -1.07527,1.6129c-0.38017,0.38017 -1.07527,0 -1.6129,0c-0.53764,0 -1.07527,0 -1.61292,0c-0.53763,0 -1.07526,0 -1.6129,0c-0.53763,0 -1.65382,0.20574 -2.15053,0c-0.70245,-0.29096 -1.17528,-0.37234 -2.15054,-1.07527c-0.61682,-0.44458 -1.07527,-0.53764 -1.6129,-0.53764l-0.53764,0l-0.53763,0" id="svg_39" stroke="#fff" fill="none"/>
  <path d="m174.19356,63.44088c0,1.07527 -0.53763,1.6129 -0.53763,2.15054c0,0.53764 0.20573,1.1162 0,1.6129c-0.29095,0.70245 -0.53763,1.07527 -0.53763,1.61291c0,0.53764 0.15747,0.69511 0.53763,1.07527c0.38016,0.38016 0.53763,1.07526 1.07527,1.07526c0.53763,0 1.23274,-0.15748 1.6129,-0.53764c0.38016,-0.38016 0.33188,-0.57855 0.53763,-1.07526c0.29097,-0.70246 0.53764,-1.07527 0.53764,-1.61291c0,-0.53764 0.1653,-1.7129 -0.53764,-2.68817c-0.88914,-1.23362 -1.40715,-1.11619 -1.6129,-1.6129c-0.29095,-0.70245 -0.53763,-1.07527 -1.07527,-1.07527l-0.53763,0l-0.53763,0" id="svg_40" stroke="#fff" fill="none"/>
  <path d="m163.44087,82.25808c0,-0.53763 -0.7843,-0.70245 -1.07527,0c-0.20575,0.49671 -0.41148,1.69476 0,2.68817c0.29097,0.70246 1.07527,1.61291 2.15054,2.68818c0.53763,0.53763 1.1162,0.86952 1.6129,1.07526c0.70245,0.29096 1.23274,1.45543 1.6129,1.07527c0.38017,-0.38017 0,-1.07527 0,-2.15054c0,-1.07527 0.76033,-2.46548 0,-3.22581c-0.38016,-0.38016 -0.33188,-0.57856 -0.53763,-1.07527c-0.29095,-0.70245 -1.23274,-0.15748 -1.6129,-0.53764c-0.38017,-0.38017 -1.07527,-0.53764 -1.6129,-0.53764l-0.53764,0l-0.53763,0l-1.07527,0" id="svg_41" stroke="#fff" fill="none"/>
  <path d="m175.80647,76.88174c0.53763,0 0.53763,0.53764 0.53763,1.07527c0,0.53764 0,1.07526 0,2.15054c0,0.53764 0,1.61291 0,2.15054c0,1.07527 0.6951,0.6951 1.07527,1.07527c0.38017,0.38017 0.15746,0.69511 0.53763,1.07527c0.38017,0.38017 1.70598,-0.45846 2.15054,-1.07527c0.70293,-0.97527 1.3367,-2.05578 1.6129,-3.22581c0.12352,-0.52325 0,-1.07527 0,-1.6129c0,-0.53764 0.76033,-1.39021 0,-2.15054c-0.38016,-0.38016 -1.16833,-0.99609 -1.6129,-1.6129c-0.70293,-0.97527 -1.07527,-1.07527 -1.6129,-1.07527c-0.53764,0 -1.07527,0 -1.61292,0c-0.53763,0 -1.07526,0 -1.6129,0l-0.53763,0" id="svg_42" stroke="#fff" fill="none"/>
  <path d="m170.43013,40.3226c0,1.07527 0.12352,1.62729 0,2.15054c-0.27621,1.17003 -0.78432,1.98573 -1.07527,2.68818c-0.20573,0.49671 -0.38016,1.23273 0,1.6129c0.38016,0.38016 1.16833,0.07918 1.6129,-0.53763c0.70293,-0.97527 1.33025,-1.6932 1.6129,-2.15054c0.63203,-1.02264 1.32195,-0.91045 1.6129,-1.6129c0.20573,-0.49671 -0.61948,-0.12614 -1.6129,-0.53763c-0.70245,-0.29097 -1.07527,-0.53764 -2.15053,-0.53764c-0.53764,0 -1.07527,-0.53764 -1.61292,-0.53764l-0.53763,0l0,-0.53763l-0.53764,0" id="svg_43" stroke="#fff" fill="none"/>
  <path d="m355.37637,29.03227c0.53763,0 1.10403,0.24705 2.15054,0c1.17001,-0.27621 1.44806,-0.7843 2.15051,-1.07527c0.99344,-0.4115 1.61292,0 2.15054,0c0.53763,0 1.61292,-0.53763 2.15054,-0.53763c0.53763,0 1.07529,0 1.07529,1.07527c0,1.07527 0.4115,1.69476 0,2.68817c-0.58194,1.40491 -1.61292,2.15053 -2.6882,3.22581c-0.53763,0.53763 -1.61288,1.61291 -2.15051,2.68817c-0.53766,1.07528 -0.53766,1.6129 -1.07529,2.15054l0,0.53763" id="svg_44" stroke="#fff" fill="none"/>
  <path d="m403.76346,52.15055c0.53763,0 1.32196,0.16481 1.61292,-0.53764c0.41147,-0.99342 0.9169,-1.26139 2.15054,-2.15054c0.97525,-0.70292 1.83807,-1.30045 2.68817,-2.15054c0.85007,-0.85007 0.91043,-1.32194 1.61288,-1.6129c0.49673,-0.20575 0.53766,0.53764 0.53766,1.6129c0,1.07527 0,2.15054 0,2.68817c0,1.07527 0,2.15054 0,3.22581c0,0.53764 -0.20575,1.11619 0,1.6129c0.29095,0.70245 1.07526,0.53764 1.61288,0.53764l0,0.53763" id="svg_45" stroke="#fff" fill="none"/>
  <path d="m419.89249,54.30109c0,-0.53763 -0.16528,-1.17527 0.53766,-2.15054c0.88916,-1.23361 2.15051,-2.15053 3.2258,-3.22581c1.07526,-1.07526 1.61288,-1.6129 1.61288,-2.15054c0,-0.53763 0.53766,-0.53763 1.07529,-0.53763c0.53763,0 1.77039,0.15747 2.15054,0.53763c0.76035,0.76033 0.3728,2.39721 1.07526,2.68818c0.4967,0.20574 0.69513,1.23274 1.07529,1.6129c0.38016,0.38016 1.07526,0.53763 1.61288,1.07527l0,0.53764l0.53763,0" id="svg_46" stroke="#fff" fill="none"/>
  <path d="m438.70972,50.53765c0,-0.53764 -0.12354,-1.62729 0,-2.15054c0.27621,-1.17002 0.79904,-2.05578 1.07526,-3.2258c0.24704,-1.04651 0.53763,-2.15054 0.53763,-2.68818c0,-0.53763 0.04092,-1.281 0.53763,-1.07527c0.70248,0.29097 1.44763,1.71291 2.15054,2.68817c0.44458,0.61681 1.3367,0.98051 1.61292,2.15054c0.12354,0.52325 0.63068,0.99609 1.07526,1.6129c0.70291,0.97527 0.53763,1.6129 1.07529,1.6129l0,0.53763" id="svg_47" stroke="#fff" fill="none"/>
  <path d="m365.0538,38.70969c0.53763,-0.53764 1.44806,-0.7843 2.15051,-1.07527c0.99344,-0.4115 2.15054,0 2.68817,0c0.53766,0 1.61292,0 2.15054,0c0.53763,0 1.07529,0 1.61292,0c0.53763,0 1.07526,0 1.07526,0.53763c0,0.53764 0,1.07527 0,1.6129c0,1.07527 -0.53763,2.15055 -1.61288,3.22581c-0.53766,0.53764 -0.53766,1.07527 -1.07529,2.15054l-0.53763,0" id="svg_48" stroke="#fff" fill="none"/>
  <path d="m301.07529,48.92475c0.53763,0 0.74564,-0.49334 2.15054,-1.07527c0.4967,-0.20574 1.64169,-0.29059 2.68817,-0.53764c1.17001,-0.27621 1.61292,-0.53764 2.15054,-0.53764c0.53763,0 1.11618,-0.20573 1.61288,0c0.70248,0.29097 1.11621,0.86953 1.61292,1.07527c0.70245,0.29097 0.53763,1.07527 0.53763,1.6129c0,0.53763 -0.37927,1.79903 -1.61288,2.68817c-0.97528,0.70294 -1.56863,0.74564 -2.15054,2.15054c-0.20575,0.49671 -0.91779,0.69511 -0.53763,1.07527c0.38016,0.38016 1.64166,-0.29058 2.68817,-0.53764c1.17001,-0.27621 1.44806,-0.7843 2.15051,-1.07527c0.99344,-0.4115 1.07529,0.53762 0,1.6129c-1.07526,1.07526 -2.15051,2.15053 -3.2258,3.22581c-0.53763,0.53763 -1.61288,1.07527 -1.61288,1.6129c0,0.53763 0.9805,-0.79906 2.15051,-1.07527c0.52328,-0.12353 1.07529,-0.53763 1.61292,-0.53763c0.53763,0 0.6951,-0.15747 1.07526,-0.53764c0.38019,-0.38018 1.32196,-0.37282 1.61292,-1.07527c0.20575,-0.49671 1.07526,-1.6129 1.61292,-2.68818c0.53763,-1.07526 1.32193,-1.98572 1.61288,-2.68817c0.20575,-0.49671 -0.20575,-1.11619 0,-1.6129c0.29095,-0.70245 0.15747,-1.23274 0.53763,-1.6129c0.38019,-0.38018 1.57199,-0.86953 1.07529,-1.07527c-0.70245,-0.29096 -1.61292,1.07528 -2.68817,2.15054c-1.07529,1.07528 -1.98526,1.71291 -2.68817,2.68817c-0.44458,0.61681 -1.61292,0.00001 -1.61292,0.53764c0,0.53763 1.15714,-0.41148 2.15054,0c1.40491,0.58193 1.61292,1.6129 2.68817,2.68817c1.07526,1.07527 2.30801,1.77037 2.68817,2.15054c0.38016,0.38017 0.53763,1.07527 0,1.07527c-1.07526,0 -1.61292,0 -2.68817,0c-1.07526,0 -2.15054,0 -2.68817,0c-1.07526,0 -2.15054,-0.53764 -2.68817,-0.53764c-1.07526,0 -1.77039,-0.6951 -2.15054,-1.07527c-0.76031,-0.76032 -1.61288,0 -1.61288,-0.53764c0,-0.53764 0.10001,-0.90997 1.07526,-1.6129c1.23361,-0.88914 2.52982,-1.79903 3.76343,-2.68817c0.97528,-0.70294 2.25055,-0.90996 3.22583,-1.6129c1.23361,-0.88914 1.61288,-1.07527 2.15051,-1.07527c0.53766,0 0.82031,0.61793 0.53766,1.07527c-0.63205,1.02266 -2.04984,1.72408 -3.22583,2.68817c-1.49908,1.22895 -3.06744,2.33667 -4.30106,3.22581c-0.97528,0.70294 -2.16492,1.48938 -2.68817,1.6129c-1.17004,0.27621 -1.61292,0.53764 -2.15054,0.53764c-0.53763,0 -1.11618,0.33188 -1.61292,0.53763c-0.70245,0.29097 -1.07526,0.53764 -1.61288,0.53764c-0.53763,0 -1.23276,0.38016 -1.61292,0c-0.38016,-0.38017 -0.53763,-0.53764 -0.53763,-1.07527c0,-0.53764 -0.78467,-1.10403 -0.53763,-2.15054c0.27621,-1.17002 1.07526,-2.15053 2.15054,-3.22581c0.53763,-0.53763 0.52325,-1.19879 0,-1.07527c-1.17004,0.27621 -1.77039,0.15747 -2.15054,0.53764c-0.38016,0.38017 0.53763,0.53763 1.07526,0.53763c1.07529,0 2.15054,0 2.68817,0c1.07529,0 2.15054,0 2.68817,0c1.07529,0 1.77039,-0.38016 2.15054,0c0.38016,0.38017 -1.26138,0.9169 -2.15054,2.15054c-0.70294,0.97526 -1.99219,2.33666 -3.2258,3.22581c-0.97525,0.70293 -2.23239,1.20143 -3.2258,1.6129c-0.70248,0.29097 -0.95175,0.52325 -1.07529,0c-0.27621,-1.17002 -0.53763,-1.6129 -0.53763,-2.68817c0,-0.53763 0,-1.6129 0,-2.68817c0,-0.53764 0,-1.07527 0,-2.15054l0,-0.53764l-0.53763,0l-0.53763,0" id="svg_49" stroke="#fff" fill="none"/>
  <polyline stroke-linecap="round" id="svg_50" points="483.8709970712662,144.08604210615158 483.33336263895035,144.08604210615158 " stroke="#fff" fill="none"/>
  <path d="m462.36563,2.68819c0,1.07527 0.76282,1.8381 1.61288,2.68817c0.85007,0.85008 1.17758,2.08684 2.15054,3.76344c0.60339,1.03979 1.61292,2.15054 2.15054,2.68817c1.07526,1.07527 1.79904,1.99219 2.68817,3.22581c0.70291,0.97527 0.90997,1.17527 1.61292,2.15054c0.88916,1.23361 1.99216,1.79902 3.2258,2.68817c0.97525,0.70292 1.61288,1.6129 2.68817,2.15054c1.07526,0.53763 2.15054,1.07527 3.2258,2.15054c0.53763,0.53763 1.99219,1.2614 3.2258,2.15054c0.97528,0.70294 2.15054,1.07527 2.68817,1.07527c1.07529,0 2.68817,0.53763 3.76346,0.53763c0.53763,0 1.51813,0.26143 2.68817,0.53763c0.52325,0.12352 1.51813,0.26143 2.68817,0.53764c0.52325,0.12352 1.61288,0 2.68817,0c1.61288,0 2.15054,0 3.76343,0c1.07529,0 1.61292,0 2.68817,0c1.07529,0 2.16492,-0.41412 2.68817,-0.53764c1.17004,-0.27621 2.25055,-0.37234 3.2258,-1.07527c0.61679,-0.44457 1.61295,-1.07527 2.6882,-1.6129c1.07526,-0.53763 1.61292,-1.07527 2.68817,-1.6129c1.07526,-0.53763 2.15051,-0.53762 2.68817,-1.07527c0.5376,-0.53762 0.99609,-1.16833 1.61292,-1.6129c0.97528,-0.70292 1.85956,-0.91044 2.15051,-1.6129c0.20575,-0.49671 0.69513,-0.1575 1.07526,-0.53763c0.38019,-0.38017 0.69513,-0.69513 1.07526,-1.07527c0.38019,-0.38017 0.15747,-0.6951 0.53766,-1.07527c0.38019,-0.38018 0.33191,-0.57856 0.53766,-1.07527c0.29095,-0.70243 1.15552,-1.33028 1.61285,-1.6129c1.02264,-0.63202 0.53766,-2.15055 1.61292,-3.22581c0.53766,-0.53764 1.44763,-1.7129 2.15057,-2.68817c0.88916,-1.23361 1.57422,-3.01669 2.68817,-4.30108c0.78766,-0.90819 1.07526,-1.6129 1.61285,-2.68817l0,-0.53763l0,-0.53763l-2.68817,0.53763" id="svg_53" stroke="#fff" fill="none"/>
  <path d="m452.6882,14.51614c-1.07526,0.53763 -2.05579,1.87433 -3.2258,2.15054c-0.52325,0.12352 -1.61292,1.07527 -2.68817,1.6129l-0.53766,0.53763l-0.53763,0.53764l-0.53763,0" id="svg_54" stroke="#fff" fill="none"/>
  <path d="m462.36563,22.58066c-0.53766,0 -1.08966,-0.12352 -1.61292,0c-1.17001,0.27621 -2.15054,1.61291 -3.2258,2.15054c-1.07529,0.53764 -2.25055,1.44762 -3.2258,2.15054c-1.23364,0.88915 -2.15054,1.6129 -3.22583,2.15054l-0.53763,0.53763l-1.07526,0.53763l-0.53763,0" id="svg_55" stroke="#fff" fill="none"/>
  <path d="m471.5054,30.10754c-0.53763,1.07527 -0.9169,2.33666 -2.15054,3.22581c-0.97525,0.70292 -2.15054,1.6129 -3.2258,2.68818c-0.53763,0.53763 -1.07526,1.6129 -1.61292,1.6129l-0.53763,0.53763" id="svg_56" stroke="#fff" fill="none"/>
  <path d="m485.48389,32.25808c-0.53763,0 -0.53763,0.53764 -0.53763,1.6129c0,0.53764 0.53763,1.6129 0.53763,2.68817c0,1.07527 0,1.6129 0,2.15054c0,0.53764 0,1.07527 0,1.6129l0,0.53763" id="svg_57" stroke="#fff" fill="none"/>
  <path d="m505.37637,32.25808c0.53763,1.07527 0.95172,1.62729 1.07526,2.15054c0.27621,1.17004 1.07529,1.6129 1.61292,2.68817c0.53763,1.07527 1.40717,2.19146 1.61292,2.68817c0.29095,0.70245 1.79898,1.45456 2.68814,2.68817c0.70294,0.97527 1.40717,2.19146 1.61292,2.68818c0.58191,1.4049 1.61292,1.6129 2.15057,2.15054l0.5376,0l0,0.53764" id="svg_58" stroke="#fff" fill="none"/>
  <path d="m527.95703,26.88174c0.5376,0.53763 1.45459,1.26139 2.68817,2.15054c0.97528,0.70293 1.83813,1.30046 2.68817,2.15054c0.85004,0.85007 1.61292,1.6129 2.15051,1.6129l0,0.53763l0.53766,0.53764l0.5376,0" id="svg_59" stroke="#fff" fill="none"/>
  <path transform="rotate(46.6848, 547.312, 20.4301)" d="m543.0108,16.12905c0.5376,0 0.90997,0.63762 1.61292,1.6129c0.44458,0.61679 1.61285,1.61289 2.68817,2.68817c1.07526,1.07525 1.98572,2.39721 2.68817,2.68817c0.4967,0.20572 1.07526,0.53763 1.07526,1.07527l0.5376,0.53763" id="svg_60" stroke="#fff" fill="none"/>
  <path d="m381.72046,91.9355c0.53763,0 1.61288,0 2.15054,0c1.07526,0 1.61288,0 2.15054,0c0.53763,0 1.50375,-0.13791 2.15051,-0.53764c1.44623,-0.89383 3.26801,-0.42465 4.83871,-1.07526c1.11069,-0.46006 1.61292,-0.53764 2.68817,-0.53764c0.53763,0 1.07529,-0.53764 2.15054,-0.53764c1.07526,0 1.23276,-0.15747 1.61292,-0.53764c0.76031,-0.76032 1.23273,-0.15747 1.61288,-0.53764c0.38016,-0.38016 1.23276,0.38016 1.61292,0c0.38016,-0.38016 1.23273,-0.69511 1.61288,-1.07526c0.38016,-0.38017 0.37283,-0.7843 1.07529,-1.07527c0.4967,-0.20574 0.6951,-0.15747 1.07526,-0.53764c0.38019,-0.38018 1.07529,-0.53764 1.61292,-0.53764c1.07526,0 1.61292,0 4.30109,0c1.61288,0 3.26895,0.16708 4.83868,0.53764c1.17004,0.27621 1.61292,0.53764 2.68817,0.53764c0.53766,0 1.07529,0.53764 1.61292,0.53764c0.53763,0 1.07526,0 1.61292,0c0.53763,0 1.61288,0 2.68817,0c0.53763,0 1.61288,0 2.68817,0c0.53763,0 1.51813,0.26143 2.68817,0.53764c1.04648,0.24704 2.15054,0 3.2258,0c0.53763,0 1.71292,-0.16529 2.68817,0.53764c0.61679,0.44457 1.64169,0.29058 2.68817,0.53763c1.17001,0.27621 2.57904,1.75082 3.2258,2.15054c1.44623,0.89383 3.06744,1.79902 4.30109,2.68817c0.97525,0.70293 2.15054,1.07527 3.2258,1.6129c1.07529,0.53764 2.25055,0.37235 3.2258,1.07527c0.61682,0.44458 1.51816,1.3367 2.68817,1.6129c1.04651,0.24705 1.64169,0.2906 2.68817,0.53764c1.17004,0.27621 1.98572,0.7843 2.68817,1.07527c0.99344,0.4115 2.27332,-0.0796 3.76346,0.53764c0.70245,0.29096 1.54758,0.80293 3.2258,1.07526c1.0614,0.17224 2.15054,0.53764 3.76346,0.53764c2.15051,0 4.30106,0.53764 6.4516,0.53764c2.15054,0 4.30109,0.53764 5.91397,0.53764l0.53763,0.53764l1.07529,0" id="svg_61" stroke="#fff" fill="none"/>
  <path d="m369.35486,90.86024c-0.53763,0 -1.07526,0 -1.61288,0c-0.53766,0 -1.07529,0 -1.61292,0c-0.53763,0 -1.07526,0 -2.15054,0c-0.53763,0 -1.61292,-0.53764 -2.15054,-0.53764c-1.07526,0 -1.92783,0.22271 -2.68817,-0.53764c-0.38016,-0.38017 -0.55151,-0.3654 -1.61288,-0.53764c-1.67822,-0.27233 -2.68817,-1.07527 -4.30109,-1.6129c-1.61292,-0.53764 -2.75967,-0.84382 -4.83871,-1.61291c-1.1275,-0.41709 -2.68817,-1.07527 -3.76343,-1.07527c-0.53763,0 -1.61292,0 -2.15054,0c-0.53763,0 -1.61292,0 -2.68817,0c-0.53763,0 -1.61292,0 -2.15054,0c-0.53763,0 -1.61292,0 -2.15054,0c-0.53763,0 -1.71289,-0.16531 -2.68817,0.53764c-0.61682,0.44457 -1.61288,1.07527 -2.68817,1.07527c-1.07526,0 -1.61288,-0.00001 -2.68817,0.53764c-1.07526,0.53763 -1.98572,1.32193 -2.68817,1.6129c-0.99341,0.41148 -2.25055,0.37234 -3.2258,1.07527c-0.61682,0.44457 -1.61292,0.53764 -2.68817,0.53764c-1.07529,0 -2.16492,0.41412 -2.68817,0.53764c-1.17004,0.2762 -2.15054,0.53763 -2.68817,0.53763c-0.53763,0 -1.07529,0 -1.61292,0c-1.07526,0 -1.44806,0.24667 -2.15054,0.53764c-0.99341,0.41147 -2.05576,0.26143 -3.2258,0.53764c-0.52325,0.12352 -1.61288,0.53764 -2.68817,0.53764c-1.07526,0 -2.15054,0 -2.68817,0c-1.07526,0 -1.61292,0 -2.15054,0c-0.53763,0 -1.07526,0 -1.61288,0c-0.53766,0 -1.07529,0 -2.15054,0c-1.07529,0 -1.61292,0 -2.68817,0c-1.07529,0 -1.61292,0 -2.68817,0c-1.07529,0 -2.16492,-0.41412 -2.68817,-0.53764c-1.17004,-0.27621 -2.15054,-1.07527 -2.68817,-1.07527c-0.53763,0 -1.07529,0 -1.61292,0c-0.53763,0 -1.61288,0 -2.15054,0c-0.53763,0 -1.07526,0 -2.15054,0c-0.53763,0 -1.61288,0 -2.15051,0c-0.53766,0 -1.07529,0 -2.15054,0c-0.53763,0 -1.15714,-0.41148 -2.15054,0c-0.70245,0.29097 -1.51816,0.79906 -2.68817,1.07527c-0.52325,0.12352 -1.51816,0.26143 -2.68817,0.53764c-1.04648,0.24705 -1.61292,0 -2.68817,0c-1.07526,0 -1.61292,0.53764 -2.68817,0.53764c-1.07526,0 -2.16492,0.41411 -2.68817,0.53763c-1.17004,0.27621 -2.16492,0.41412 -2.68817,0.53764c-1.17003,0.27621 -2.16493,0.41412 -2.68817,0.53764c-1.17003,0.27621 -2.46548,-0.22269 -3.22581,0.53764c-0.38017,0.38017 -1.07527,0.53764 -1.6129,0.53764c-0.53763,0 -1.6129,0 -2.68817,0c-1.07527,0 -1.6129,0 -2.15054,0c-1.07526,0 -1.6129,0 -2.68817,0c-1.07527,0 -1.6129,0 -2.68817,0c-1.07527,0 -2.15053,0 -2.68817,0c-0.53763,0 -1.1162,-0.33189 -1.6129,-0.53764c-0.70245,-0.29097 -1.07527,-1.07527 -1.6129,-1.07527c-1.07527,0 -1.4481,-0.7843 -2.15054,-1.07526c-0.99342,-0.41149 -2.16493,-0.41412 -2.68817,-0.53764c-1.17003,-0.27621 -2.05579,-0.79906 -3.2258,-1.07527c-0.52325,-0.12353 -2.15054,0 -3.22581,0c-1.07527,0 -1.51814,-0.26143 -2.68817,-0.53764c-1.04651,-0.24705 -1.6129,0 -2.68817,0c-1.07527,0 -1.6129,0 -2.68817,0c-1.07527,0 -1.51814,-0.26143 -2.68817,-0.53763c-1.04651,-0.24705 -1.6129,0 -2.68817,0c-1.07527,0 -1.6129,0 -2.68817,0c-1.07527,0 -1.6129,0 -3.22581,0c-1.07526,0 -1.6129,0 -2.68817,0c-1.07527,0 -1.6129,0 -2.68817,0c-1.07527,0 -2.15053,0 -2.68817,0c-1.07527,0 -2.23238,-0.41148 -3.2258,0c-0.70245,0.29096 -1.61292,0.53763 -2.68817,0.53763c-1.07527,0 -2.15054,0 -4.30109,0c-1.6129,0 -3.8862,0.61723 -5.37634,0c-0.70244,-0.29096 -2.15053,-1.07526 -3.76344,-1.07526c-1.6129,0 -3.2258,-0.53764 -3.76343,-0.53764c-1.61292,0 -2.68819,0 -3.22581,0c-1.07527,0 -2.68817,0 -4.83871,0.53764c-2.15053,0.53764 -4.30757,1.56918 -8.06451,2.15054c-3.23183,0.5001 -7.55959,1.95737 -11.29031,2.68817c-2.17538,0.42613 -4.33656,1.00951 -5.37634,1.61291c-1.67661,0.97298 -2.15054,1.6129 -3.22581,2.15054c-1.07527,0.53764 -1.45454,1.26139 -2.68817,2.15054c-0.97527,0.70293 -2.25055,1.44762 -3.2258,2.15054c-1.23363,0.88914 -1.61291,2.15054 -2.68818,3.22581c-1.07527,1.07527 -2.15054,2.15054 -3.22581,2.68817c-1.07527,0.53764 -1.07527,1.07527 -1.6129,1.61291l-0.53764,0.53764l-0.53764,0" id="svg_62" stroke="#fff" fill="none"/>
  <path d="m462.90326,97.31184c0.53763,0 1.07526,0 1.61288,0c0.53766,0 1.07529,0 1.61292,0c0.53763,0 1.07526,0 1.61292,0c0.53763,0 1.07526,0 1.61288,0c1.07529,0 2.17932,0.24705 3.22583,0c1.17001,-0.2762 1.61288,-0.53763 2.15051,-0.53763c0.53766,0 1.44809,-0.7843 2.15054,-1.07527c0.4967,-0.20574 0.57855,-0.33188 1.07529,-0.53764c0.70245,-0.29097 0.6951,-0.69511 1.07526,-1.07527c0.38016,-0.38016 0.15747,-0.6951 0.53763,-1.07526c0.38016,-0.38016 1.07529,-0.53764 1.61292,-0.53764c0.53763,0 1.07526,0 1.61288,0c0.53766,0 1.07529,0 1.61292,0c0.53763,0 1.4476,0.10001 2.15054,1.07527c0.44458,0.61681 1.65381,0.86951 2.15054,1.07526c0.70245,0.29097 0.53763,1.07527 1.07526,1.07527c0.53763,0 0.6951,0.15747 1.07526,0.53764c0.38019,0.38018 1.07529,0.53764 1.61292,0.53764c1.07529,0 1.61292,0 2.68817,0c0.53763,0 1.07529,0 1.61292,0c0.53763,0 1.64166,-0.24705 2.68817,0c1.17001,0.2762 1.61288,0.53763 2.68817,0.53763c1.07526,0 2.05579,0.26143 3.2258,0.53764c1.56976,0.37057 2.52335,0.24667 3.2258,0.53764c0.99344,0.4115 2.15054,0 2.68817,0l1.07526,0l0.53766,0l0.53766,0" id="svg_65" stroke="#fff" fill="none"/>
  <polyline stroke-linecap="round" id="svg_66" points="761.8279985785484,148.92475199699402 762.3656330108643,148.92475199699402 762.90326744318,148.92475199699402 " stroke="#fff" fill="none"/>
 </g>
</svg>
